<svg width="120" height="120" viewBox="0 0 120 120" xmlns="http://www.w3.org/2000/svg">
  <!-- Outer circle with green figures -->
  <circle cx="60" cy="60" r="58" fill="none" stroke="#2E8B57" stroke-width="2"/>
  
  <!-- Green interconnected figures (simplified) -->
  <g stroke="#2E8B57" stroke-width="2" fill="none">
    <circle cx="60" cy="10" r="3"/>
    <circle cx="80" cy="15" r="3"/>
    <circle cx="95" cy="30" r="3"/>
    <circle cx="105" cy="50" r="3"/>
    <circle cx="110" cy="60" r="3"/>
    <circle cx="105" cy="80" r="3"/>
    <circle cx="95" cy="95" r="3"/>
    <circle cx="80" cy="105" r="3"/>
    <circle cx="60" cy="110" r="3"/>
    <circle cx="40" cy="105" r="3"/>
    <circle cx="25" cy="95" r="3"/>
    <circle cx="15" cy="80" r="3"/>
    <circle cx="10" cy="60" r="3"/>
    <circle cx="15" cy="40" r="3"/>
    <circle cx="25" cy="25" r="3"/>
    <circle cx="40" cy="15" r="3"/>
  </g>
  
  <!-- Central building -->
  <rect x="45" y="35" width="30" height="25" fill="#87CEEB" stroke="#4682B4" stroke-width="1"/>
  <rect x="50" y="40" width="5" height="5" fill="#4682B4"/>
  <rect x="65" y="40" width="5" height="5" fill="#4682B4"/>
  
  <!-- Clock tower -->
  <rect x="58" y="25" width="4" height="10" fill="#4682B4"/>
  <circle cx="60" cy="30" r="2" fill="#FFD700"/>
  
  <!-- Yellow flowers -->
  <circle cx="35" y="70" r="3" fill="#FFD700"/>
  <circle cx="45" y="75" r="3" fill="#FFD700"/>
  <circle cx="55" y="70" r="3" fill="#FFD700"/>
  <circle cx="65" y="75" r="3" fill="#FFD700"/>
  <circle cx="75" y="70" r="3" fill="#FFD700"/>
  <circle cx="85" y="75" r="3" fill="#FFD700"/>
  
  <!-- Text rings -->
  <text x="60" y="20" text-anchor="middle" font-size="8" fill="#FFD700" font-weight="bold">የአዲስ አበባ ማሕበር</text>
  <text x="60" y="100" text-anchor="middle" font-size="8" fill="#DC143C" font-weight="bold">A.A. ASSN IN CHICAGO</text>
</svg>
